<svg xmlns="http://www.w3.org/2000/svg" xmlns:xlink="http://www.w3.org/1999/xlink" fill="none" version="1.1" width="560" height="560" viewBox="0 0 560 560"><clipPath id="master_svg0_23_44"><rect x="0" y="0" width="560" height="560" rx="280"/></clipPath><clipPath id="master_svg1_23_29"><rect x="26" y="90" width="500" height="380" rx="190"/></clipPath><g clip-path="url(#master_svg0_23_44)" style="mix-blend-mode:passthrough"><g><g clip-path="url(#master_svg1_23_29)" style="mix-blend-mode:passthrough"><g><g style="mix-blend-mode:passthrough"><path d="M413.516,233.73700000000002L475.406,264.971L475.406,390.94L108.7969,390.94L108.7969,91.94L364.125,91.94L325.64099999999996,131.94L213.844,131.94L213.844,217.94L364.125,217.94L364.125,91.94L468.125,91.94L468.125,205.69L413.516,233.73700000000002ZM368.797,350.94L368.797,257.94L213.844,257.94L213.844,350.94L368.797,350.94Z" fill="#2CB9B0" fill-opacity="1"/></g><g style="mix-blend-mode:passthrough"><path d="M62.7969,475.94L62.7969,176.94L167.844,176.94L167.844,436.94L360.234,436.94L338.406,475.94L62.7969,475.94Z" fill="#FF87A2" fill-opacity="1"/></g></g></g></g></g></svg>