<svg xmlns="http://www.w3.org/2000/svg" xmlns:xlink="http://www.w3.org/1999/xlink" fill="none" version="1.1" width="520" height="520" viewBox="0 0 520 520"><defs><clipPath id="master_svg0_3_1518"><rect x="0" y="0" width="520" height="520" rx="0"/></clipPath></defs><g clip-path="url(#master_svg0_3_1518)"><rect x="0" y="0" width="520" height="520" rx="0" fill="#FFFFFF" fill-opacity="1"/><g style="mix-blend-mode:passthrough"><g style="mix-blend-mode:passthrough"><rect x="70" y="107" width="35.90550994873047" height="250" rx="17.952754974365234" fill="#FF87A2" fill-opacity="1"/></g><g style="mix-blend-mode:passthrough"><rect x="70" y="371" width="179.52755737304688" height="36" rx="18" fill="#2CB9B0" fill-opacity="1"/></g><g style="mix-blend-mode:passthrough"><path d="M270 107C270 107 270 107 270 107L414 107C433.88225099390854 107 450 123.11774900609144 450 143L450 257C450 257 450 257 450 257L270 257C270 257 270 257 270 257Z" fill="#2CB9B0" fill-opacity="1"/></g><g style="mix-blend-mode:passthrough"><path d="M270 257C270 257 270 257 270 257L450 257C450 257 450 257 450 257L450 371C450 390.88225099390854 433.88225099390854 407 414 407L270 407C270 407 270 407 270 407Z" fill="#FF87A2" fill-opacity="1"/></g><g style="mix-blend-mode:passthrough"><path d="M306 275C306 275 306 275 306 275L414 275C414 275 414 275 414 275L414 353C414 362.94112549695427 405.94112549695427 371 396 371L306 371C306 371 306 371 306 371Z" fill="#FFFFFF" fill-opacity="1"/></g><g style="mix-blend-mode:passthrough" transform="matrix(1,0,0,-1,0,478)"><path d="M306,239L414,239L414,317C414,326.9411,405.9411,335,396,335L306,335L306,239Z" fill="#FFFFFF" fill-opacity="1"/></g></g></g></svg>