<svg xmlns="http://www.w3.org/2000/svg" xmlns:xlink="http://www.w3.org/1999/xlink" fill="none" version="1.1" width="520" height="520" viewBox="0 0 520 520"><defs><clipPath id="master_svg0_9_014"><rect x="0" y="0" width="520" height="520" rx="0"/></clipPath></defs><g clip-path="url(#master_svg0_9_014)"><g style="mix-blend-mode:passthrough"><g style="mix-blend-mode:passthrough"><rect x="70" y="107" width="35.90550994873047" height="250" rx="17.952754974365234" fill="#FF87A2" fill-opacity="1"/></g><g style="mix-blend-mode:passthrough"><rect x="70" y="371" width="179.52755737304688" height="36" rx="18" fill="#2CB9B0" fill-opacity="1"/></g><g style="mix-blend-mode:passthrough"><path d="M270 107C270 107 270 107 270 107L414 107C433.88225099390854 107 450 123.11774900609144 450 143L450 257C450 257 450 257 450 257L270 257C270 257 270 257 270 257Z" fill="#000000" fill-opacity="0"/><path d="M414,107L270,107L270,257L450,257L450,143C450,123.1178,433.882,107,414,107ZM306,143L306,239L414,239L414,143L306,143Z" fill-rule="evenodd" fill="#2CB9B0" fill-opacity="1"/></g><g style="mix-blend-mode:passthrough"><path d="M450,257L270,257L270,407L414,407C433.882,407,450,390.882,450,371L450,257ZM306,275L306,371L414,371L414,275L306,275Z" fill-rule="evenodd" fill="#FF87A2" fill-opacity="1"/></g></g></g></svg>