<svg width="512.000000" height="512.000000" viewBox="0 0 512 512" fill="none" xmlns="http://www.w3.org/2000/svg" xmlns:xlink="http://www.w3.org/1999/xlink">
	<desc>
			Created with Pixso.
	</desc>
	<defs>
		<filter id="filter_10_3_dd" x="247.484375" y="136.343750" width="194.843750" height="248.046875" filterUnits="userSpaceOnUse" color-interpolation-filters="sRGB">
			<feFlood flood-opacity="0" result="BackgroundImageFix"/>
			<feBlend mode="normal" in="SourceGraphic" in2="BackgroundImageFix" result="shape"/>
			<feColorMatrix in="SourceAlpha" type="matrix" values="0 0 0 0 0 0 0 0 0 0 0 0 0 0 0 0 0 0 127 0" result="hardAlpha"/>
			<feOffset dx="0" dy="12"/>
			<feGaussianBlur stdDeviation="4"/>
			<feComposite in2="hardAlpha" operator="arithmetic" k2="-1" k3="1"/>
			<feColorMatrix type="matrix" values="0 0 0 0 0 0 0 0 0 0 0 0 0 0 0 0 0 0 0.25 0"/>
			<feBlend mode="normal" in2="shape" result="effect_innerShadow_1"/>
		</filter>
		<filter id="filter_10_4_dd" x="67.359375" y="136.331177" width="180.156250" height="248.046875" filterUnits="userSpaceOnUse" color-interpolation-filters="sRGB">
			<feFlood flood-opacity="0" result="BackgroundImageFix"/>
			<feBlend mode="normal" in="SourceGraphic" in2="BackgroundImageFix" result="shape"/>
			<feColorMatrix in="SourceAlpha" type="matrix" values="0 0 0 0 0 0 0 0 0 0 0 0 0 0 0 0 0 0 127 0" result="hardAlpha"/>
			<feOffset dx="0" dy="12"/>
			<feGaussianBlur stdDeviation="4"/>
			<feComposite in2="hardAlpha" operator="arithmetic" k2="-1" k3="1"/>
			<feColorMatrix type="matrix" values="0 0 0 0 0 0 0 0 0 0 0 0 0 0 0 0 0 0 0.25 0"/>
			<feBlend mode="normal" in2="shape" result="effect_innerShadow_1"/>
		</filter>
		<clipPath id="clip10_1">
			<rect id="logo-方形-透明" width="512.000000" height="512.000000" fill="white"/>
		</clipPath>
	</defs>
	<g clip-path="url(#clip10_1)">
		<g filter="url(#filter_10_3_dd)">
			<path id="B" d="M408.422 257.984C412.901 258.193 417.276 259.417 421.547 261.656C425.818 263.896 429.438 266.812 432.406 270.406C439.021 278.323 442.328 287.932 442.328 299.234L442.328 342.75C442.328 354.729 438.917 364.443 432.094 371.891C423.812 380.224 412.094 384.391 396.938 384.391L247.484 384.391L247.484 136.344L396.938 136.344C408.656 136.344 418.682 140.51 427.016 148.844C433.839 156.292 437.25 166.005 437.25 177.984L437.25 216.969C437.25 227.229 434.516 236.214 429.047 243.922C423.63 251.578 416.755 256.266 408.422 257.984ZM381.234 236.188L381.234 179.859L297.406 179.859L297.406 236.188L381.234 236.188ZM386.391 279.703L297.406 279.703L297.406 340.875L386.391 340.875L386.391 279.703Z" fill-rule="evenodd" fill="#2CB9B0"/>
		</g>
		<g filter="url(#filter_10_4_dd)">
			<path id="L" d="M247.516 339.534L247.516 384.378L102.594 384.378C91.0312 384.378 82.2552 381.175 76.2656 374.769C70.3281 368.362 67.3594 359.612 67.3594 348.519L67.3594 136.331L118.531 136.331L118.531 339.534L247.516 339.534Z" fill-rule="evenodd" fill="#FF87A2"/>
		</g>
	</g>
</svg>
