<?xml version="1.0" standalone="no"?>
<!DOCTYPE svg PUBLIC "-//W3C//DTD SVG 20010904//EN"
 "http://www.w3.org/TR/2001/REC-SVG-20010904/DTD/svg10.dtd">
<svg version="1.0" xmlns="http://www.w3.org/2000/svg"
 width="512.000000pt" height="512.000000pt" viewBox="0 0 512.000000 512.000000"
 preserveAspectRatio="xMidYMid meet">
<metadata>
Created by potrace 1.14, written by Peter Selinger 2001-2017
</metadata>
<g transform="translate(0.000000,512.000000) scale(0.100000,-0.100000)"
fill="#000000" stroke="none">
<path d="M1610 4259 c-185 -41 -435 -144 -565 -232 l-50 -34 0 -244 0 -244
-197 -1 c-108 -1 -203 -4 -210 -6 -11 -5 -13 -183 -12 -984 1 -539 2 -982 3
-986 2 -12 96 -121 167 -193 163 -167 316 -267 599 -395 48 -21 217 -69 295
-83 47 -9 101 -19 120 -22 19 -4 334 -8 700 -10 l665 -3 80 144 c44 80 81 148
83 152 1 4 -388 7 -865 7 -478 -1 -873 0 -878 2 -12 4 -14 397 -2 410 5 4 637
8 1405 8 l1397 0 2 575 2 576 -279 139 c-153 77 -279 143 -279 146 -1 4 65 41
147 82 81 42 190 98 242 125 l95 50 3 284 2 284 -47 45 c-222 207 -548 366
-870 423 l-33 6 0 -575 0 -575 -47 0 c-56 -1 -1241 -1 -1293 0 l-35 0 1 388
c1 213 2 389 3 392 0 3 229 4 509 3 l507 -1 78 81 c44 45 121 125 173 179 52
53 94 99 94 102 0 4 -366 6 -812 5 -753 -1 -819 -3 -898 -20z m1756 -1501 c7
-7 7 -825 0 -837 -6 -10 -1405 -12 -1407 -2 -3 15 -5 827 -2 836 3 10 1398 13
1409 3z"/>
</g>
</svg>
