<?xml version="1.0" standalone="no"?>
<!DOCTYPE svg PUBLIC "-//W3C//DTD SVG 20010904//EN"
 "http://www.w3.org/TR/2001/REC-SVG-20010904/DTD/svg10.dtd">
<svg version="1.0" xmlns="http://www.w3.org/2000/svg"
 width="1024.000000pt" height="1024.000000pt" viewBox="0 0 1024.000000 1024.000000"
 preserveAspectRatio="xMidYMid meet">
<metadata>
Created by potrace 1.14, written by Peter Selinger 2001-2017
</metadata>
<g transform="translate(0.000000,1024.000000) scale(0.100000,-0.100000)"
fill="#000000" stroke="none">
<path d="M1350 5358 c0 -1839 2 -2167 15 -2248 23 -149 71 -259 155 -353 109
-121 244 -179 460 -197 152 -13 5914 -13 6068 0 348 28 589 170 707 415 87
182 99 304 92 950 -6 501 -9 532 -66 681 -34 87 -87 174 -152 247 -81 92 -237
185 -348 208 -31 6 -67 13 -81 16 -21 4 -16 8 30 22 222 69 398 268 482 543
21 71 22 89 26 603 4 569 0 633 -45 759 -92 260 -323 450 -604 495 -42 7 -587
11 -1601 11 l-1538 0 0 -2030 0 -2030 -1290 0 -1290 0 0 2030 0 2030 -510 0
-510 0 0 -2152z m6278 722 l-3 -561 -838 -2 -837 -2 0 563 0 562 840 0 840 0
-2 -560z m102 -2045 l0 -615 -890 0 -890 0 0 615 0 615 890 0 890 0 0 -615z"/>
</g>
</svg>
